<svg width="244" height="67" viewBox="0 0 244 67" fill="none" xmlns="http://www.w3.org/2000/svg">
<rect width="92" height="67" fill="#271E5F"/>
<rect x="234" y="57" width="10" height="10" fill="#271E5F"/>
<path d="M25.804 25.292V32.636H34.444V35.984H25.804V43.652H35.524V47H21.7V21.944H35.524V25.292H25.804ZM52.0629 34.508L59.8389 47H55.2309L49.5789 37.928L44.2869 47H39.7149L47.4909 34.508L39.6789 21.98H44.2869L49.9749 31.124L55.3029 21.98H59.8749L52.0629 34.508ZM81.8405 29.432C81.8405 30.704 81.5405 31.904 80.9405 33.032C80.3405 34.16 79.3805 35.084 78.0605 35.804C76.7405 36.5 75.0485 36.848 72.9845 36.848H68.4485V47H64.3445V21.98H72.9845C74.9045 21.98 76.5245 22.316 77.8445 22.988C79.1885 23.636 80.1845 24.524 80.8325 25.652C81.5045 26.78 81.8405 28.04 81.8405 29.432ZM72.9845 33.5C74.5445 33.5 75.7085 33.152 76.4765 32.456C77.2445 31.736 77.6285 30.728 77.6285 29.432C77.6285 26.696 76.0805 25.328 72.9845 25.328H68.4485V33.5H72.9845ZM89.8587 25.292V32.636H98.4987V35.984H89.8587V43.652H99.5787V47H85.7547V21.944H99.5787V25.292H89.8587ZM117.63 47L111.87 36.992H108.738V47H104.634V21.98H113.274C115.194 21.98 116.814 22.316 118.134 22.988C119.478 23.66 120.474 24.56 121.122 25.688C121.794 26.816 122.13 28.076 122.13 29.468C122.13 31.1 121.65 32.588 120.69 33.932C119.754 35.252 118.302 36.152 116.334 36.632L122.526 47H117.63ZM108.738 33.716H113.274C114.81 33.716 115.962 33.332 116.73 32.564C117.522 31.796 117.918 30.764 117.918 29.468C117.918 28.172 117.534 27.164 116.766 26.444C115.998 25.7 114.834 25.328 113.274 25.328H108.738V33.716ZM131.484 21.98V47H127.38V21.98H131.484ZM140.976 25.292V32.636H149.616V35.984H140.976V43.652H150.696V47H136.872V21.944H150.696V25.292H140.976ZM176.307 47H172.203L159.855 28.316V47H155.751V21.944H159.855L172.203 40.592V21.944H176.307V47ZM180.328 34.436C180.328 31.988 180.892 29.792 182.02 27.848C183.172 25.904 184.72 24.392 186.664 23.312C188.632 22.208 190.78 21.656 193.108 21.656C195.772 21.656 198.136 22.316 200.2 23.636C202.288 24.932 203.8 26.78 204.736 29.18H199.804C199.156 27.86 198.256 26.876 197.104 26.228C195.952 25.58 194.62 25.256 193.108 25.256C191.452 25.256 189.976 25.628 188.68 26.372C187.384 27.116 186.364 28.184 185.62 29.576C184.9 30.968 184.54 32.588 184.54 34.436C184.54 36.284 184.9 37.904 185.62 39.296C186.364 40.688 187.384 41.768 188.68 42.536C189.976 43.28 191.452 43.652 193.108 43.652C194.62 43.652 195.952 43.328 197.104 42.68C198.256 42.032 199.156 41.048 199.804 39.728H204.736C203.8 42.128 202.288 43.976 200.2 45.272C198.136 46.568 195.772 47.216 193.108 47.216C190.756 47.216 188.608 46.676 186.664 45.596C184.72 44.492 183.172 42.968 182.02 41.024C180.892 39.08 180.328 36.884 180.328 34.436ZM213.644 25.292V32.636H222.284V35.984H213.644V43.652H223.364V47H209.54V21.944H223.364V25.292H213.644Z" fill="white"/>
</svg>
