<svg width="191" height="30" viewBox="0 0 191 30" fill="none" xmlns="http://www.w3.org/2000/svg">
<path d="M15.008 12.6C16.6507 13.6453 17.472 15.032 17.472 16.76C17.472 18.4667 16.576 19.992 14.784 21.336C13.0133 22.6587 11.0293 23.32 8.832 23.32C6.63467 23.32 4.74667 22.7653 3.168 21.656C1.58933 20.5253 0.8 18.9147 0.8 16.824V16.472H4.864V17.176C4.864 18.6053 5.25867 19.8 6.048 20.76C6.85867 21.6987 7.84 22.168 8.992 22.168C10.1653 22.168 11.104 21.8053 11.808 21.08C12.5333 20.3333 12.896 19.3093 12.896 18.008C12.896 17.0267 12.1493 16.0773 10.656 15.16L4.256 11.256C2.48533 10.1893 1.6 8.696 1.6 6.776C1.6 5.21867 2.32533 3.8 3.776 2.52C5.22667 1.24 7.01867 0.599998 9.152 0.599998C10.2827 0.599998 11.2747 0.770665 12.128 1.112C13.0027 1.45333 13.6533 1.88 14.08 2.392C14.8693 3.352 15.264 4.152 15.264 4.792V4.984H14.176C14.176 4.25867 13.7707 3.53333 12.96 2.808C12.1707 2.08267 11.2 1.72 10.048 1.72C8.91733 1.72 7.94667 2.072 7.136 2.776C6.32533 3.48 5.92 4.38667 5.92 5.496C5.92 6.15733 6.144 6.72267 6.592 7.192C7.06133 7.66133 7.69067 8.13067 8.48 8.6L15.008 12.6ZM32.682 15.736V8.024C32.682 6.424 32.2553 4.97333 31.402 3.672C30.57 2.37067 29.4713 1.72 28.106 1.72C27.4873 1.72 26.9647 1.92267 26.538 2.328C26.1327 2.73333 25.8447 3.26667 25.674 3.928C25.3753 4.952 25.226 6.008 25.226 7.096V16.696C25.226 18.5733 25.5033 19.96 26.058 20.856C26.634 21.752 27.3807 22.2 28.298 22.2C29.642 22.2 30.7087 21.56 31.498 20.28C32.2873 19 32.682 17.4853 32.682 15.736ZM37.802 23H32.714V19.48C32.2233 20.76 31.5193 21.72 30.602 22.36C29.6847 23 28.7247 23.32 27.722 23.32C25.418 23.32 23.5833 22.6053 22.218 21.176C20.8527 19.7253 20.17 17.6987 20.17 15.096V8.728C20.17 6.104 20.9273 4.09867 22.442 2.712C23.9567 1.304 25.738 0.599998 27.786 0.599998C28.9807 0.599998 30.0153 0.994665 30.89 1.784C31.7647 2.552 32.3727 3.49067 32.714 4.6V0.919998H37.802V23ZM59.1673 23H54.0473V6.584C54.0473 4.64267 53.8339 3.352 53.4073 2.712C53.0019 2.05067 52.4259 1.72 51.6793 1.72C50.5273 1.72 49.5139 2.36 48.6393 3.64C47.7646 4.92 47.3273 6.424 47.3273 8.152V23H42.2713V0.919998H47.3273V4.6C47.7539 3.34133 48.4046 2.36 49.2793 1.656C50.1753 0.951998 51.2206 0.599998 52.4153 0.599998C55.9566 0.599998 58.1006 2.18933 58.8472 5.368C59.2739 3.93867 59.9459 2.78667 60.8633 1.912C61.8019 1.03733 62.9326 0.599998 64.2553 0.599998C68.7566 0.599998 71.0073 3.13867 71.0073 8.216V23H65.8873V6.584C65.8873 4.64267 65.6739 3.352 65.2473 2.712C64.8419 2.05067 64.2659 1.72 63.5193 1.72C62.3673 1.72 61.3539 2.36 60.4793 3.64C59.6046 4.92 59.1673 6.424 59.1673 8.152V23ZM80.2655 0.919998V23H75.1775V0.919998H80.2655Z" fill="white"/>
<path d="M108.234 20.472C108.234 23.1173 107.829 25.0693 107.018 26.328C106.08 27.8 104.821 28.7813 103.242 29.272C102.282 29.5707 101.173 29.72 99.9143 29.72C96.9063 29.72 94.4209 28.888 92.4583 27.224L93.1302 26.296C94.9649 27.7253 96.8636 28.44 98.8263 28.44C101.898 28.44 103.434 26.4987 103.434 22.616V20.824C103.114 21.4853 102.602 22.072 101.898 22.584C101.216 23.0747 100.362 23.32 99.3383 23.32C96.7569 23.32 94.6876 22.5413 93.1302 20.984C91.5943 19.4053 90.8263 17.3893 90.8263 14.936V9.016C90.8263 6.62667 91.6263 4.632 93.2263 3.032C94.8263 1.41067 96.9169 0.599998 99.4983 0.599998C101.525 0.599998 103.349 1.176 104.97 2.328C106.592 3.45867 107.402 5.016 107.402 7V7.448H103.114L103.082 6.68C103.018 5.18667 102.688 3.992 102.09 3.096C101.493 2.17867 100.618 1.72 99.4663 1.72C98.3143 1.72 97.4289 2.17867 96.8103 3.096C96.1916 4.01333 95.8823 5.208 95.8823 6.68V17.208C95.8823 18.7013 96.1916 19.9067 96.8103 20.824C97.4289 21.7413 98.3356 22.2 99.5303 22.2C100.725 22.2 101.621 21.7413 102.218 20.824C102.837 19.8853 103.146 18.68 103.146 17.208V16.536H108.234V20.472ZM121.716 6.808C121.716 5.016 121.353 3.768 120.628 3.064C119.924 2.33867 118.814 1.976 117.3 1.976H115.54V23H110.484V0.919998H118.324C123.849 0.919998 126.612 2.81867 126.612 6.616C126.612 9.15467 124.681 11 120.82 12.152C124.916 12.9627 126.964 15.1387 126.964 18.68V23H121.908V17.592C121.908 15.9707 121.577 14.7333 120.916 13.88C120.254 13.0267 119.326 12.6 118.132 12.6C117.79 12.6 117.332 12.6213 116.756 12.664V11.832C117.908 11.7893 118.974 11.416 119.956 10.712C121.129 9.90133 121.716 8.6 121.716 6.808ZM142.12 15.736V8.024C142.12 6.424 141.693 4.97333 140.84 3.672C140.008 2.37067 138.909 1.72 137.544 1.72C136.925 1.72 136.402 1.92267 135.976 2.328C135.57 2.73333 135.282 3.26667 135.112 3.928C134.813 4.952 134.664 6.008 134.664 7.096V16.696C134.664 18.5733 134.941 19.96 135.496 20.856C136.072 21.752 136.818 22.2 137.736 22.2C139.08 22.2 140.146 21.56 140.936 20.28C141.725 19 142.12 17.4853 142.12 15.736ZM147.24 23H142.152V19.48C141.661 20.76 140.957 21.72 140.04 22.36C139.122 23 138.162 23.32 137.16 23.32C134.856 23.32 133.021 22.6053 131.656 21.176C130.29 19.7253 129.608 17.6987 129.608 15.096V8.728C129.608 6.104 130.365 4.09867 131.88 2.712C133.394 1.304 135.176 0.599998 137.224 0.599998C138.418 0.599998 139.453 0.994665 140.328 1.784C141.202 2.552 141.81 3.49067 142.152 4.6V0.919998H147.24V23ZM156.829 8.024V15.608C156.829 17.336 157.234 18.872 158.045 20.216C158.855 21.5387 159.911 22.2 161.213 22.2C162.13 22.2 162.866 21.752 163.421 20.856C163.997 19.96 164.285 18.5733 164.285 16.696V7.096C164.285 6.05067 164.167 5.10133 163.933 4.248C163.442 2.56267 162.535 1.72 161.213 1.72C159.89 1.72 158.823 2.36 158.013 3.64C157.223 4.92 156.829 6.38133 156.829 8.024ZM156.797 29.4H151.709V0.919998H156.797V4.44C157.181 3.37333 157.821 2.46667 158.717 1.72C159.634 0.973332 160.658 0.599998 161.789 0.599998C163.837 0.599998 165.607 1.304 167.101 2.712C168.594 4.09867 169.341 6.104 169.341 8.728V15.096C169.341 17.6987 168.658 19.7253 167.293 21.176C165.927 22.6053 164.093 23.32 161.789 23.32C160.743 23.32 159.773 22.9893 158.877 22.328C158.002 21.6667 157.309 20.6747 156.797 19.352V29.4ZM190.802 23H185.714V12.12H178.546V23H173.49V0.919998H178.546V10.584H185.714V0.919998H190.802V23Z" fill="#271E5F"/>
</svg>
